<?xml version="1.0" standalone="no"?>
<svg width="64" height="64" viewBox="0 0 431 384" version="1.1" xmlns="http://www.w3.org/2000/svg">
  <path d="M431 33c1 -1 0 -2 0 -3c0 -4 -2 -7 -6 -7v0h-72v-20c0 -3 -3 -5 -6 -5h-26c-3 0 -6 2 -6 5v20h-72v0c-4 0 -6 3 -6 7c0 1 0 2 1 3v0l8 16h-82v-44c0 -4 -4 -7 -8 -7h-38c-4 0 -7 3 -7 7v44h-101v0c-5 0 -10 4 -10 9c0 2 1 4 2 6l52 90h-21v0c-4 0 -8 4 -8 8c0 2 1 4 2 5 l48 83h-12v0c-3 0 -6 2 -6 5c0 1 1 2 1 3v0l71 123c2 3 4 5 8 5s7 -2 9 -5v0l71 -123v0c0 -1 1 -2 1 -3c0 -3 -3 -5 -6 -5v0h-12l49 -84v-1c1 -1 1 -2 1 -3c0 -4 -4 -8 -8 -8v0h-21l43 -75l11 19h-15v0c-3 0 -5 3 -5 6v2v0l35 60h-9v0c-2 0 -4 2 -4 4c0 1 1 1 1 2v0l50 87v0 c1 2 3 4 6 4s5 -2 6 -4v0l50 -87v0c0 -1 1 -1 1 -2c0 -2 -2 -4 -4 -4v0h-8l34 -60v0c0 -1 1 -1 1 -2c0 -3 -3 -6 -6 -6v0h-15l38 -65v0z" transform="matrix(1,0,0,-1,0,384)"/>
</svg>