<?xml version="1.0" standalone="no"?>
<svg width="64" height="64" viewBox="0 0 512 384" version="1.1" xmlns="http://www.w3.org/2000/svg">
  <path d="M327 368c69 0 121 -43 121 -116c0 -31 -13 -71 -41 -105s-45 -52 -100 -88s-83 -43 -83 -43s-28 7 -83 43s-72 54 -100 88s-41 74 -41 105c0 73 52 116 121 116c39 0 82 -18 103 -53c21 35 64 53 103 53zM395 157c12 14 22 31 28 49c6 16 9 31 9 46c0 30 -10 56 -29 74 c-9 8 -20 15 -33 19c-13 5 -28 7 -43 7c-38 0 -73 -18 -89 -45l-14 -23l-14 23c-16 27 -51 45 -89 45c-15 0 -30 -2 -43 -7c-13 -4 -24 -11 -33 -19c-19 -18 -29 -44 -29 -74c0 -15 3 -30 9 -46c6 -18 16 -35 28 -49c27 -32 42 -49 97 -85c40 -27 65 -36 74 -39 c9 3 34 12 74 39c55 36 70 53 97 85z" transform="matrix(1,0,0,-1,0,384)"/>
</svg>