<?xml version="1.0" standalone="no"?>
<svg width="64" height="64" viewBox="0 0 512 384" version="1.1" xmlns="http://www.w3.org/2000/svg">
  <path d="M503 333c19 -37 8 -81 -20 -108s-60 -33 -60 -33c2 -32 16 -59 -41 -102c-43 -32 2 -90 2 -90c10 -14 23 -19 32 -32h-272s15 14 -7 32c0 0 -20 17 -18 29s6 13 9 15s0 7 0 7l-19 19s-13 -13 -44 -13c-38 0 -65 39 -65 39h46s-6 -8 -7 -13c-1 -4 1 -5 1 -5s11 -6 22 -6 c17 0 33 12 33 12l-24 22l-15 -4l-16 37l39 -10l-1 -15l28 -18s9 9 7 27s-9 26 -9 26s-4 0 -9 -4s-6 -6 -6 -6l-10 44s43 -19 50 -63c3 -20 -6 -35 -6 -35l17 -10s6 5 17 7s23 2 29 -8s5 -12 4 -19s0 -9 6 -11s6 -6 11 -8s15 -6 21 -2s8 11 8 18v16s-9 8 -32 20 s-54 22 -66 40s-12 44 0 57c9 10 23 25 26 35c4 14 4 42 4 42s-10 16 -8 40c2 30 22 84 96 114c0 0 -40 -55 -20 -80c0 0 37 11 77 9c31 -2 56 -12 73 -28s25 -23 47 -17s28 17 28 33c0 19 -16 51 -16 51s36 -7 58 -51zM195 245c14 4 21 -11 21 -11c14 25 30 60 22 64 s-64 -25 -66 -88c0 0 6 31 23 35zM232 230c5 7 34 8 37 -17c4 -35 -24 -57 -24 -57s7 -2 23 2c17 4 43 29 43 70s-21 66 -41 62s-38 -60 -38 -60z" transform="matrix(1,0,0,-1,0,384)"/>
</svg>